<?xml version="1.0" encoding="utf-8"?>
<svg version="1.1" xmlns="http://www.w3.org/2000/svg" x="0px" y="0px"
	 viewBox="0 0 30 30" style="enable-background:new 0 0 30 30;" xml:space="preserve">
<defs>
  <style type="text/css">
    .epf-bg { fill: #1a0d33; }
    .epf-bolt { fill: #F59E0B; }
    .epf-bolt-inner { fill: #FBBF24; }
  </style>
</defs>

<!-- Background (dark purple) -->
<rect x="1.5" y="1.5" width="27" height="27" rx="6" ry="6" class="epf-bg"/>

<!-- Lightning bolt (power/electrical symbol) -->
<path class="epf-bolt" d="M16.8,3.5L7.5,16.8c-0.3,0.4,0,1,0.5,1h5.2l-1.8,7.7c-0.1,0.6,0.6,0.9,1,0.4l9.3-13.3c0.3-0.4,0-1-0.5-1h-5.2
	l1.8-7.7C17.9,3.3,17.2,3,16.8,3.5z"/>

<!-- Inner highlight on bolt -->
<path class="epf-bolt-inner" d="M16.5,5.2L8.8,16.1c-0.2,0.3,0,0.7,0.4,0.7h4l-1.4,6c-0.1,0.4,0.4,0.7,0.7,0.3l7.7-10.9
	c0.2-0.3,0-0.7-0.4-0.7h-4l1.4-6C17.3,5.1,16.8,4.8,16.5,5.2z"/>
</svg>
