<?xml version="1.0" encoding="utf-8"?>
<svg version="1.1" xmlns="http://www.w3.org/2000/svg" x="0px" y="0px"
	 viewBox="0 0 200 200" style="enable-background:new 0 0 200 200;" xml:space="preserve">
<defs>
  <style type="text/css">
    .epf-bg { fill: #1a0d33; }
    .epf-bolt { fill: #F59E0B; }
    .epf-bolt-inner { fill: #FBBF24; }
    .epf-text { fill: #FFFFFF; font-family: Arial, sans-serif; font-weight: bold; }
  </style>
</defs>

<!-- Background (dark purple, rounded square) -->
<rect x="10" y="10" width="180" height="180" rx="40" ry="40" class="epf-bg"/>

<!-- Lightning bolt (large, centered) -->
<path class="epf-bolt" d="M112,23L50,110c-2,2.7,0,6.7,3.3,6.7h34.7l-12,51.3c-0.7,4,4,6,6.7,2.7l62-87c2-2.7,0-6.7-3.3-6.7h-34.7
	l12-51.3C119.3,21.7,114.7,19.7,112,23z"/>

<!-- Inner highlight on bolt -->
<path class="epf-bolt-inner" d="M110,34.7L58.7,107c-1.3,2,0,4.7,2.7,4.7H89l-9.3,40c-0.7,2.7,2.7,4.7,4.7,2l51.3-72.3
	c1.3-2,0-4.7-2.7-4.7H107l9.3-40C117,32,113.3,30,110,34.7z"/>
</svg>
